PathFileType	4	(X/Y/Z)	./resultDataOpenSim/trcMotMarkerGrf/sub09/qtm-04-08.trc
DataRate	CameraRate	NumFrames	NumMarkers	Units	OrigDataRate	OrigDataStartFrame	OrigNumFrames
250.000000	250.000000	5	24	m	250.000000	125	498
Frame#	Time	L.Toe.Tip			R.Toe.Tip			L.Ankle.Lat			R.Ankle.Lat			L.Ankle.Med			R.Ankle.Med			L.Heel			R.Heel			L.Knee.Lat			R.Knee.Lat			L.Knee.Med			R.Knee.Med			L.Thigh.Upper			R.Thigh.Upper			L.ASIS			R.ASIS			V.Sacral			L.Acromium			R.Acromium			C7			L.Elbow			R.Elbow			L.Wrist.Lat			R.Wrist.Lat
		X1	Y1	Z1	X2	Y2	Z2	X3	Y3	Z3	X4	Y4	Z4	X5	Y5	Z5	X6	Y6	Z6	X7	Y7	Z7	X8	Y8	Z8	X9	Y9	Z9	X10	Y10	Z10	X11	Y11	Z11	X12	Y12	Z12	X13	Y13	Z13	X14	Y14	Z14	X15	Y15	Z15	X16	Y16	Z16	X17	Y17	Z17	X18	Y18	Z18	X19	Y19	Z19	X20	Y20	Z20	X21	Y21	Z21	X22	Y22	Z22	X23	Y23	Z23	X24	Y24	Z24

125	0.496	-0.20361337	0.085784076	-0.0045141398	-0.65651757	0.039333915	0.1007646	-0.35528706	0.098371755	-0.036982618	-0.80479752	0.059872609	0.113468	-0.33209662	0.11636283	0.057715018	-0.77954991	0.09741158	0.026513287	-0.41555812	0.047654685	0.014102762	-0.8670034	0.040257218	0.053719927	-0.36713422	0.51622524	-0.070594257	-0.65965919	0.49359177	0.19774981	-0.3672671	0.51115752	0.055166826	-0.66087308	0.48578435	0.068730359	-0.56769621	0.88405528	-0.11246417	-0.62677722	0.89883419	0.25903397	-0.50181444	0.97031009	-0.045836986	-0.51432519	0.9775159	0.19333946	-0.6744222	1.0287575	0.060809062	-0.49985164	1.4215904	-0.10023096	-0.52157837	1.4327378	0.2285503	-0.57758043	1.4805295	0.06334805	-0.66714717	1.0960601	-0.15079436	-0.63690893	1.0730295	0.32578176	-0.5764683	0.851302	-0.18488643	-0.38271726	0.95702444	0.2807217
126	0.5	-0.18721999	0.087237066	-0.0023944893	-0.656424	0.039316847	0.1007814	-0.33901573	0.096497742	-0.035794361	-0.8047147	0.059990134	0.11290737	-0.31668567	0.11530088	0.058967482	-0.77903645	0.097288023	0.02577118	-0.39838669	0.044585466	0.015090151	-0.86678989	0.040399574	0.052910514	-0.36097867	0.51372094	-0.070526913	-0.65696396	0.49303411	0.19744914	-0.36136052	0.50881341	0.055335189	-0.65825876	0.48535649	0.068654048	-0.56107333	0.88209259	-0.11220642	-0.62143832	0.89782142	0.25907654	-0.49518839	0.96860459	-0.045651813	-0.50836755	0.97636321	0.19370454	-0.66794725	1.0269582	0.060587894	-0.49424782	1.4202985	-0.10018469	-0.5158422	1.4312473	0.2286397	-0.57187917	1.4790896	0.063464178	-0.66200291	1.0952315	-0.15108397	-0.63047836	1.0712331	0.32604437	-0.57246956	0.85024067	-0.18521564	-0.37540874	0.95728262	0.28046161
127	0.504	-0.17113582	0.088828181	-0.00021588304	-0.65633955	0.039305201	0.1007032	-0.32300479	0.094765999	-0.034605005	-0.80461789	0.060114019	0.11233384	-0.30147062	0.11439852	0.060223888	-0.77857844	0.097150931	0.025096968	-0.38141431	0.041670921	0.016087018	-0.86658144	0.040559037	0.052101109	-0.35485122	0.51106203	-0.070347102	-0.65428718	0.49237717	0.19718477	-0.35562276	0.50631665	0.055525177	-0.65562279	0.48480689	0.068485447	-0.55438206	0.88006594	-0.11191281	-0.61616111	0.89680031	0.25913244	-0.48852781	0.96684471	-0.045451126	-0.50239459	0.9751188	0.19407784	-0.66157427	1.0251123	0.060503582	-0.48864558	1.4189362	-0.10014175	-0.51007031	1.4296753	0.2287265	-0.56610376	1.477573	0.063481348	-0.6569602	1.0943137	-0.1513358	-0.62405236	1.0693699	0.32627193	-0.56845943	0.84908759	-0.18556796	-0.36812753	0.95741328	0.28021123
128	0.508	-0.15536466	0.090535059	0.0019324329	-0.65626695	0.039279103	0.10054827	-0.30730567	0.09314546	-0.033448396	-0.80450372	0.060241591	0.11175261	-0.28647249	0.11363885	0.061444234	-0.77810456	0.097038773	0.024525064	-0.36465911	0.038905323	0.017098794	-0.86638157	0.04073398	0.051320964	-0.34877461	0.50833926	-0.07013976	-0.65157214	0.49161875	0.19691283	-0.35000239	0.50364931	0.05576339	-0.65292646	0.48411281	0.068179804	-0.54765047	0.87796709	-0.1115853	-0.6109769	0.89578447	0.25923503	-0.4818374	0.96503872	-0.045236598	-0.4963927	0.97378158	0.19444882	-0.65528112	1.0231906	0.060428659	-0.48304663	1.4175042	-0.10010228	-0.50424906	1.428019	0.2288053	-0.56037278	1.476006	0.063530301	-0.65200654	1.0933132	-0.1515508	-0.61762274	1.0674334	0.32644235	-0.56445805	0.84783404	-0.18594925	-0.36088532	0.95741777	0.279966
129	0.512	-0.13992831	0.092330079	0.0039765263	-0.65619701	0.039226411	0.10037731	-0.29192437	0.091614113	-0.032330734	-0.80436861	0.060367871	0.11118317	-0.27174962	0.11297812	0.062570946	-0.77759916	0.096962081	0.024027246	-0.34814417	0.036293038	0.018116355	-0.86619664	0.040921561	0.050587521	-0.34276786	0.50560175	-0.069947234	-0.64871408	0.49077498	0.19662151	-0.3444216	0.50081671	0.056072882	-0.65003817	0.48331093	0.067794701	-0.54089073	0.87578739	-0.11122585	-0.60586915	0.89475494	0.25937949	-0.47511884	0.96318744	-0.045016887	-0.4903558	0.97235251	0.1948065	-0.64898169	1.0211831	0.060274455	-0.47745673	1.4160039	-0.10007581	-0.49839114	1.4262773	0.22887006	-0.55472804	1.4743847	0.063678583	-0.64705868	1.0922327	-0.1517568	-0.61118252	1.0654244	0.32657422	-0.56045874	0.846487	-0.18636459	-0.35368675	0.95730418	0.27972285
